<?xml version="1.0" encoding="UTF-8"?>
<svg id="Layer_1" data-name="Layer 1" xmlns="http://www.w3.org/2000/svg" viewBox="0 0 432.38 450.08">
  <defs>
    <style>
      .cls-1 {
        fill: #708a5f;
      }

      .cls-2 {
        fill: #fcf6d6;
      }

      .cls-3 {
        fill: #e9e4c3;
      }

      .cls-4 {
        fill: #5c592c;
      }

      .cls-5 {
        fill: #494520;
      }

      .cls-6 {
        fill: #d34e44;
      }

      .cls-7 {
        fill: #f56a5b;
      }

      .cls-8 {
        fill: #d3ccae;
      }

      .cls-9 {
        fill: #637c52;
      }

      .cls-10 {
        fill: #f0ce43;
      }

      .cls-11 {
        fill: #ddd8d0;
      }

      .cls-12 {
        fill: #f4efef;
      }

      .cls-13 {
        fill: #d1b22f;
      }

      .cls-14 {
        fill: #1d1d1b;
      }
    </style>
  </defs>
  <ellipse class="cls-11" cx="206.36" cy="339.39" rx="144.33" ry="21.87"/>
  <path class="cls-14" d="m57.29,119.3c1.03,0,2.04-.47,2.69-1.36,1.51-2.06,3.08-4.11,4.66-6.1,1.15-1.44.91-3.54-.53-4.68-1.44-1.15-3.54-.91-4.68.53-1.65,2.06-3.27,4.19-4.83,6.32-1.09,1.49-.76,3.57.72,4.66.59.43,1.28.64,1.97.64Z"/>
  <path class="cls-14" d="m391.66,228.37c1.84,0,3.33-1.49,3.33-3.33,0-32.68-8.5-64.88-24.59-93.1-33.47-58.72-96.2-95.2-163.71-95.2-49.61,0-96.43,19.13-131.84,53.86-1.31,1.29-1.33,3.4-.05,4.71,1.29,1.31,3.4,1.34,4.71.05,34.16-33.5,79.32-51.95,127.17-51.95,65.12,0,125.64,35.19,157.92,91.83,15.52,27.22,23.72,58.28,23.72,89.8,0,1.84,1.49,3.33,3.33,3.33Z"/>
  <path class="cls-14" d="m377.61,299.21c1.31,0,2.55-.77,3.08-2.06.76-1.83,1.5-3.71,2.21-5.57.65-1.72-.22-3.65-1.94-4.3-1.72-.65-3.65.22-4.3,1.94-.68,1.8-1.4,3.61-2.13,5.37-.71,1.7.1,3.65,1.8,4.36.42.17.85.26,1.28.26Z"/>
  <path class="cls-14" d="m206.69,413.34c70.36,0,134.33-38.76,166.96-101.15.85-1.63.22-3.65-1.41-4.5-1.63-.85-3.64-.22-4.5,1.41-31.48,60.19-93.19,97.58-161.06,97.58-100.15,0-181.64-81.48-181.64-181.64,0-1.84-1.49-3.33-3.33-3.33s-3.33,1.49-3.33,3.33c0,103.83,84.47,188.3,188.3,188.3Z"/>
  <g>
    <path class="cls-12" d="m114.08,349.16l143.54-81.32c1.66-.94,2.24-3.04,1.3-4.7l-97.74-172.52c-.94-1.66-3.04-2.24-4.7-1.3L12.94,170.64c-1.37.78-1.85,2.52-1.08,3.89l98.32,173.56c.78,1.37,2.52,1.85,3.89,1.08Z"/>
    <path class="cls-3" d="m20.14,184.01l86.17,152.1c3.53,6.22,10.99,8.22,17.2,4.7l119.85-67.9c7.73-4.38,10.76-13.95,6.38-21.68l-83.05-146.6c-1.01-1.78-2.3-3.28-3.8-4.46-4.97-4-12.14-4.61-18.09-1.24L24.95,166.82c-5.44,3.08-7.74,9.17-5.86,14.81.27.81.62,1.6,1.05,2.38Z"/>
    <polygon class="cls-8" points="169.62 105.29 38.16 179.76 35.21 187.5 122.94 343.68 246.64 273.92 169.62 105.29"/>
    <path class="cls-2" d="m19.09,181.63l143.8-81.47c-4.97-4-12.14-4.61-18.09-1.24L24.95,166.82c-5.44,3.08-7.74,9.17-5.86,14.81Z"/>
    <path class="cls-5" d="m54.61,181.94l119.94-67.95,76.58,135.17c4.99,8.81,1.6,19.72-7.22,24.71l-103.47,58.62c-3.57,2.02-7.57.92-9.59-2.65L52.5,191.54c-1.89-3.34-1.24-7.71,2.11-9.61Z"/>
    <path class="cls-14" d="m141.73,334.77l103.47-58.62c9.87-5.59,13.35-18.17,7.76-28.03l-77.49-136.79-121.77,68.99c-4.4,2.49-5.96,8.11-3.46,12.51l78.35,138.3c2.62,4.63,8.52,6.26,13.15,3.64Zm32.05-217.38l75.3,132.92c4.38,7.74,1.65,17.59-6.08,21.98l-103.47,58.62c-2.5,1.42-5.68.53-7.1-1.96L54.09,190.64c-1.29-2.27-.49-5.17,1.78-6.45l117.91-66.8Z"/>
    <path class="cls-14" d="m17.9,182.3l124.69-70.64c1.07-.6,1.44-1.96.84-3.03-.6-1.07-1.96-1.44-3.03-.84L15.71,178.44c-1.07.6-1.44,1.96-.84,3.03.6,1.07,1.96,1.44,3.03.84Z"/>
    <path class="cls-4" d="m57.79,182.69l117.86-66.77,74.66,131.78c4.23,7.48,1.32,16.7-6.16,20.93l-103.81,58.81c-2.23,1.26-5.18.98-6.45-1.25L55.85,188.44c-1.13-2-.07-4.62,1.93-5.76Z"/>
    <path class="cls-14" d="m22.76,162.95l119.85-67.9c9.87-5.59,22.36-2.49,27.95,7.38l83.05,146.6c5.59,9.86,1.81,22.15-8.06,27.74l-119.85,67.9c-8.35,4.73-18.53,1.98-23.26-6.37L16.27,186.2c-4.73-8.35-1.87-18.51,6.48-23.25Zm83.55,173.16c3.53,6.22,10.99,8.22,17.2,4.69l119.85-67.9c7.73-4.38,10.76-13.95,6.38-21.68l-83.05-146.6c-4.38-7.73-14.16-10.08-21.9-5.7L24.95,166.82c-6.22,3.52-8.33,10.97-4.81,17.19l86.17,152.1Z"/>
    <path class="cls-14" d="m121.88,345.56l3.87-2.19L39.04,190.33c-2.01-3.55-.76-8.08,2.79-10.1l130.81-74.11-2.19-3.87L39.65,176.36c-5.69,3.22-7.69,10.47-4.47,16.15l86.7,153.04Z"/>
    <g>
      <path class="cls-12" d="m138.29,138.58h124.24c12.69,0,22.99,10.3,22.99,22.99v159.2c0,12.69-10.3,22.99-22.99,22.99h-124.24c-13.27,0-24.04-10.77-24.04-24.04v-157.11c0-13.27,10.77-24.04,24.04-24.04Z" transform="translate(399.78 482.33) rotate(180)"/>
      <path class="cls-3" d="m116.59,153.75v174.81c0,7.15,5.71,12.69,12.85,12.69h137.74c8.89,0,16.15-6.96,16.15-15.85v-168.49c0-2.04-.34-3.8-1.07-5.57-2.36-5.93-8.24-9.81-15.09-9.81h-137.74c-6.25,0-11.35,3.98-12.5,9.81-.17.83-.35,1.51-.35,2.4Z"/>
      <polygon class="cls-8" points="285.64 159.28 134.56 159.28 128.17 164.39 127.52 343.44 269.54 343.84 285.64 159.28"/>
      <path class="cls-2" d="m117.04,151.14h165.27c-2.36-5.84-8.29-9.6-15.13-9.6h-137.74c-6.25,0-11.25,4.17-12.4,9.6Z"/>
      <path class="cls-6" d="m147.79,169.09h138.05v155.21c0,10.13-8.53,18.01-18.66,18.01h-118.92c-4.1,0-6.84-2.99-6.84-7.09v-158.95c0-3.84,2.53-7.17,6.37-7.17Z"/>
      <path class="cls-14" d="m148.26,344.87h118.92c11.34,0,20.57-9.23,20.57-20.57v-157.22h-139.96c-5.06,0-9.18,4.12-9.18,9.18v158.95c0,5.32,4.33,9.65,9.65,9.65Zm135.04-173.34v152.77c0,8.89-7.23,16.12-16.12,16.12h-118.92c-2.87,0-5.21-2.34-5.21-5.21v-158.95c0-2.61,2.12-4.73,4.73-4.73h135.51Z"/>
      <path class="cls-14" d="m115.67,151.14h143.31c1.23,0,2.22-.86,2.22-2.09s-.99-2.09-2.22-2.09H115.67c-1.23,0-2.22.86-2.22,2.09s.99,2.09,2.22,2.09Z"/>
      <path class="cls-7" d="m150.19,171.38h135.65v151.24c0,8.59-7.28,15.3-15.87,15.3h-119.31c-2.56,0-5.07-1.82-5.07-4.39v-158.32c0-2.3,2.29-3.83,4.59-3.83Z"/>
      <path class="cls-14" d="m129.44,136.95h137.74c11.34,0,20.74,8.63,20.74,19.97v168.49c0,11.33-9.4,20.44-20.74,20.44h-137.74c-9.6,0-17.02-7.68-17.02-17.28v-174.81c0-9.6,7.43-16.8,17.02-16.8Zm-12.85,191.62c0,7.15,5.71,12.69,12.85,12.69h137.74c8.89,0,16.15-6.96,16.15-15.85v-168.49c0-8.89-7.27-15.38-16.15-15.38h-137.74c-7.14,0-12.85,5.07-12.85,12.21v174.81Z"/>
      <path class="cls-14" d="m125.67,344.47h4.44v-175.9c0-4.08,3.32-7.41,7.41-7.41h150.34v-4.44h-150.34c-6.53,0-11.85,5.32-11.85,11.85v175.9Z"/>
    </g>
    <path class="cls-12" d="m171.98,243.7l97.07,97.07c6.75,6.75,17.7,6.75,24.46,0l120.62-120.62c6.75-6.75,6.75-17.7,0-24.46l-97.07-97.07c-6.52-6.52-17.1-6.52-23.62,0l-121.46,121.46c-6.52,6.52-6.52,17.1,0,23.62Z"/>
    <path class="cls-3" d="m296.3,99.33l-123.61,123.61c-5.06,5.06-4.99,12.78.06,17.83l97.4,97.4c6.28,6.28,16.32,6.65,22.6.37l119.14-119.14c1.45-1.45,2.55-3.1,3.28-4.85,2.53-5.86,1.21-12.93-3.63-17.77l-97.4-97.4c-4.42-4.42-10.9-5.01-15.84-1.7-.71.47-1.38,1.02-2.01,1.65Z"/>
    <polygon class="cls-8" points="412.04 222.4 305.2 115.57 296.96 114.78 169.83 240.99 270.05 341.61 412.04 222.4"/>
    <path class="cls-2" d="m298.31,97.68l116.86,116.86c2.53-5.86,1.21-12.93-3.63-17.77l-97.4-97.4c-4.42-4.42-10.9-5.01-15.84-1.7Z"/>
    <path class="cls-9" d="m307.49,131.99l97.48,97.48-109.85,109.85c-7.16,7.16-18.58,6.8-25.74-.37l-84.09-84.09c-2.9-2.9-2.91-7.05,0-9.95l112.4-112.4c2.72-2.72,7.1-3.25,9.82-.53Z"/>
    <path class="cls-14" d="m297.35,96.71l101.33,101.33c.87.87,2.27.87,3.14,0,.87-.87.87-2.27,0-3.14l-101.33-101.33c-.87-.87-2.27-.87-3.14,0-.87.87-.87,2.27,0,3.14Z"/>
    <path class="cls-1" d="m303.63,133.5l94.21,94.21-105.34,105.34c-5.98,5.98-15.48,5.63-21.46-.34l-82.98-82.98c-1.78-1.78-2.29-4.66-.51-6.44l110.11-110.11c1.6-1.6,4.36-1.28,5.96.32Z"/>
    <path class="cls-14" d="m317.29,96.23l97.4,97.4c8.02,8.02,8.37,20.89.35,28.91l-119.14,119.14c-8.01,8.01-20.86,7.65-28.88-.37l-97.4-97.4c-6.79-6.79-6.85-17.33-.06-24.12l123.61-123.61c6.79-6.79,17.34-6.74,24.13.05Zm-144.6,126.71c-5.06,5.06-4.99,12.78.06,17.83l97.4,97.4c6.28,6.28,16.32,6.65,22.6.37l119.14-119.14c6.28-6.28,5.94-16.34-.35-22.62l-97.4-97.4c-5.05-5.05-12.8-5.1-17.85-.05l-123.61,123.61Z"/>
    <path class="cls-14" d="m167.73,240.47l3.14,3.14,124.38-124.38c2.89-2.89,7.59-2.89,10.47,0l106.31,106.31,3.14-3.14-106.31-106.31c-4.62-4.62-12.14-4.62-16.76,0l-124.38,124.38Z"/>
    <polygon class="cls-10" points="340.99 220.59 355.93 224.77 359.86 239.45 387.21 212.1 368.35 193.23 340.99 220.59"/>
    <polygon class="cls-13" points="381.04 205.88 357.3 228.93 359.86 239.45 387.21 212.68 381.04 205.88"/>
    <path class="cls-14" d="m359.86,241.34c.49,0,.98-.19,1.34-.55l27.36-27.36c.74-.74.74-1.93,0-2.67l-18.87-18.87c-.71-.71-1.96-.71-2.67,0l-27.36,27.36c-.47.47-.66,1.17-.49,1.81.17.65.67,1.16,1.32,1.34l13.9,3.9,3.65,13.64c.17.65.68,1.16,1.33,1.34.16.04.33.07.49.07Zm24.69-29.25l-23.71,23.71-3.08-11.52c-.17-.64-.67-1.15-1.31-1.33l-11.83-3.32,23.74-23.74,16.2,16.2Z"/>
    <path class="cls-14" d="m183.43,256.73l84.09,84.09c8.02,8.02,21.07,8.02,29.09,0l111.17-111.17-98.96-98.96c-3.58-3.58-9.4-3.58-12.98,0l-112.4,112.4c-3.76,3.76-3.76,9.89,0,13.65Zm218.06-27.08l-108.03,108.03c-6.29,6.29-16.52,6.29-22.8,0l-84.09-84.09c-2.03-2.03-2.03-5.33,0-7.36l112.4-112.4c1.85-1.85,4.85-1.85,6.69,0l95.82,95.82Z"/>
  </g>
</svg>